<svg width="48" height="48" viewBox="0 0 48 48" fill="none" xmlns="http://www.w3.org/2000/svg">
<path d="M24.002 27C11.848 27 2.00201 28.343 2.00201 30.006C2.00201 31.659 11.847 33 24.002 33C36.158 33 46.002 31.659 46.002 30.006C46.002 28.343 36.158 27 24.002 27ZM24.002 30.972C21.139 30.972 18.811 30.478 18.811 29.868C18.811 29.259 21.14 28.764 24.002 28.764C26.864 28.764 29.195 29.259 29.195 29.868C29.195 30.478 26.864 30.972 24.002 30.972Z" fill="#42A5F5"/>
<path d="M21.29 15L23.661 21.43L29.25 15H38.736C43.383 15 46.642 17.148 45.894 19.904C45.149 22.66 40.716 24.808 36.091 24.808H29.796C29.796 24.808 29.937 24.765 29.968 24.682C30.214 23.738 31.675 18.418 31.693 18.335C31.713 18.233 31.588 18.202 31.588 18.202H36.16C36.16 18.202 36.072 18.196 36.035 18.335C35.6494 19.7259 35.2677 21.1179 34.89 22.511C34.867 22.605 34.728 22.65 34.728 22.65H35.822C38.416 22.65 40.869 21.822 41.385 19.902C41.858 18.15 40.141 17.156 37.346 17.156H36.332L31.957 17.16L21.914 27.092L18.069 17.338C18.069 17.338 18.033 17.272 18.004 17.191C17.99 17.165 17.896 17.085 17.798 17.128C17.733 17.164 17.724 17.245 17.732 17.274C17.768 17.34 17.774 17.354 17.78 17.385C18.349 18.315 18.247 19.394 18.11 19.905C17.336 22.655 12.924 24.809 8.29801 24.809H2.00201C2.00201 24.809 2.15101 24.766 2.17401 24.683C2.42801 23.737 3.89101 18.389 3.90001 18.336C3.91801 18.246 3.80101 18.203 3.80101 18.203H8.40501C8.40501 18.203 8.27301 18.24 8.24701 18.334C8.22301 18.412 7.29301 21.766 7.09601 22.512C7.07301 22.606 6.91801 22.651 6.91801 22.651H8.03601C10.633 22.651 13.068 21.823 13.583 19.903C14.055 18.151 12.353 17.157 9.56201 17.157H4.08901C4.08901 17.157 4.21401 17.098 4.23601 17.018C4.35901 16.575 4.73301 15.184 4.75101 15.119C4.77101 15.047 4.64601 15 4.64601 15H21.29Z" fill="#1565C0"/>
</svg>
