<svg width="44" height="18" viewBox="0 0 44 18" fill="none" xmlns="http://www.w3.org/2000/svg">
<path d="M22 12C9.846 12 0 13.343 0 15.006C0 16.659 9.845 18 22 18C34.156 18 44 16.659 44 15.006C44 13.343 34.156 12 22 12ZM22 15.972C19.137 15.972 16.809 15.478 16.809 14.868C16.809 14.259 19.138 13.764 22 13.764C24.862 13.764 27.193 14.259 27.193 14.868C27.193 15.478 24.862 15.972 22 15.972Z" fill="black"/>
<path d="M19.288 0L21.659 6.43L27.248 0H36.734C41.381 0 44.64 2.148 43.892 4.904C43.147 7.66 38.714 9.808 34.089 9.808H27.794C27.794 9.808 27.935 9.765 27.966 9.682C28.212 8.738 29.673 3.418 29.691 3.335C29.711 3.233 29.586 3.202 29.586 3.202H34.158C34.158 3.202 34.07 3.196 34.033 3.335C33.6474 4.72591 33.2657 6.11791 32.888 7.511C32.865 7.605 32.726 7.65 32.726 7.65H33.82C36.414 7.65 38.867 6.822 39.383 4.902C39.856 3.15 38.139 2.156 35.344 2.156H34.33L29.955 2.16L19.912 12.092L16.067 2.338C16.067 2.338 16.031 2.272 16.002 2.191C15.988 2.165 15.894 2.085 15.796 2.128C15.731 2.164 15.722 2.245 15.73 2.274C15.766 2.34 15.772 2.354 15.778 2.385C16.347 3.315 16.245 4.394 16.108 4.905C15.334 7.655 10.922 9.809 6.296 9.809H0C0 9.809 0.149 9.766 0.172 9.683C0.426 8.737 1.889 3.389 1.898 3.336C1.916 3.246 1.799 3.203 1.799 3.203H6.403C6.403 3.203 6.271 3.24 6.245 3.334C6.221 3.412 5.291 6.766 5.094 7.512C5.071 7.606 4.916 7.651 4.916 7.651H6.034C8.631 7.651 11.066 6.823 11.581 4.903C12.053 3.151 10.351 2.157 7.56 2.157H2.087C2.087 2.157 2.212 2.098 2.234 2.018C2.357 1.575 2.731 0.184 2.749 0.119C2.769 0.0470004 2.644 0 2.644 0H19.288Z" fill="black"/>
</svg>
